<svg xmlns="http://www.w3.org/2000/svg" width="2056" height="691" viewBox="0 0 2056 691" version="1.1"><path d="M 549.500 18.533 C 543.735 21.392, 543 24.221, 543 43.547 C 543 70.837, 543.168 71.007, 570.154 70.985 C 597.680 70.963, 597.500 71.141, 597.500 44.004 C 597.500 16.901, 597.624 17.025, 570.500 17.038 C 556.590 17.044, 551.818 17.384, 549.500 18.533 M 40.768 257.708 C 28.991 277.329, 27.493 282.412, 26.328 306.701 C 25.768 318.366, 25.882 320, 27.253 320 C 28.973 320, 65 291.391, 65 290.025 C 65 289.558, 63.181 286.021, 60.959 282.166 C 55.964 273.503, 51.106 260.408, 50.190 253.139 C 49.182 245.143, 47.951 245.740, 40.768 257.708 M 63.444 307.546 C 59.625 311.166, 52 317.769, 46.500 322.218 C 41 326.667, 34.664 332.056, 32.421 334.194 L 28.342 338.081 29.171 344.290 C 33.708 378.278, 68.104 463, 77.366 463 C 81.493 463, 147 407.303, 147 403.793 C 147 403.231, 143.376 398.942, 138.947 394.263 C 122.726 377.127, 109.945 360.396, 91.993 332.801 C 87.592 326.035, 83.430 319.703, 82.745 318.728 C 82.060 317.754, 79.455 313.510, 76.956 309.297 C 71.236 299.655, 71.704 299.716, 63.444 307.546 M 3.085 360.750 C -3.499 404.794, 0.063 451.567, 13.100 492.248 C 18.211 508.199, 16.012 507.986, 35.327 494.398 C 57.474 478.817, 58.827 477.641, 57.275 475.327 C 35.171 442.380, 19.850 406.770, 11.499 368.935 C 10.111 362.646, 8.747 356.488, 8.469 355.250 C 7.218 349.696, 4.290 352.687, 3.085 360.750 M 61.500 494.934 C 58.750 497.034, 49.178 504.144, 40.229 510.736 L 23.958 522.719 30.444 535.353 C 37.856 549.790, 50.543 570.230, 55.152 575.160 C 56.870 576.997, 61.015 581.875, 64.363 586 C 73.632 597.419, 90.362 614.263, 101.458 623.347 C 106.935 627.831, 112.335 632.405, 113.458 633.510 C 118.089 638.070, 118.306 638.110, 123.566 635.341 C 128.232 632.883, 158.465 610.598, 166 604.062 L 169.500 601.025 166.853 598.763 C 165.397 597.518, 160.697 593.800, 156.409 590.500 C 134.960 573.995, 90.518 525.341, 73.514 499.750 C 66.790 489.631, 67.875 490.066, 61.500 494.934" stroke="none" fill="#ff2828" fill-rule="evenodd"/><path d="M 432.928 2.403 C 426.091 7.049, 425.858 8.529, 426.198 45.029 C 426.631 91.613, 423.984 89, 470.751 89 C 517.757 89, 515.944 90.805, 515.978 43.962 C 516.011 -2.554, 518.649 0, 470.584 0 L 436.464 0 432.928 2.403 M 547.994 99.911 C 531.997 104.929, 530.818 108.747, 531.202 154.283 L 531.500 189.500 534 193.956 C 540 204.650, 545.567 205.989, 584 205.987 C 623.423 205.984, 629.124 204.578, 634.533 193.521 L 637.092 188.291 636.796 150.730 L 636.500 113.169 633.456 108.834 C 631.781 106.450, 628.406 103.375, 625.956 102 L 621.500 99.500 586 99.312 C 566.475 99.209, 549.372 99.478, 547.994 99.911 M 149.500 176.143 C 132.483 178.308, 102.434 187.313, 96.998 191.877 L 93.500 194.815 96.500 195.458 C 102.747 196.796, 130.411 211.479, 135.699 216.263 C 139.497 219.700, 176.204 180.376, 173.414 175.860 C 172.752 174.789, 158.851 174.954, 149.500 176.143 M 71.704 216.823 C 65.072 224.314, 64.920 224.609, 65.410 229 C 66.496 238.721, 79.670 275, 82.115 275 C 87.040 275, 130.829 231.060, 128.239 228.717 C 125.448 226.190, 105.762 216.718, 94.794 212.623 C 80.774 207.390, 79.916 207.546, 71.704 216.823 M 133.160 236.998 C 128.217 243.683, 115.863 257.305, 102.151 271.191 L 87.643 285.882 89.571 290.189 C 91.552 294.613, 114.024 328.546, 123.942 342.089 C 140.639 364.889, 160.099 389.859, 161.237 389.945 C 163.603 390.122, 185.584 369.272, 215.065 338.886 L 237.975 315.271 228.738 307.293 C 223.657 302.905, 213.875 294.486, 207 288.584 C 200.125 282.682, 190.439 274.349, 185.477 270.067 C 173.429 259.671, 160.542 249.903, 148.448 242 C 142.977 238.425, 138.350 235.162, 138.167 234.750 C 137.457 233.152, 135.281 234.129, 133.160 236.998 M 144.495 424.783 C 132.078 436.876, 115.087 451.899, 101 463.240 C 95.775 467.447, 90.020 472.154, 88.211 473.700 L 84.923 476.512 90.991 485.405 C 111.522 515.492, 151.659 561.358, 175.289 581.735 L 185.078 590.177 190.763 585.338 C 267.389 520.127, 267.747 519.678, 253.163 506.954 C 219.334 477.441, 187.288 446.647, 165.535 422.750 C 155.827 412.085, 157.721 411.902, 144.495 424.783 M 962.567 563.237 L 959.003 566.699 957.854 615.192 C 956.606 667.816, 956.630 668.240, 960.965 670.482 C 974.041 677.244, 975.270 672.075, 975.895 607.688 L 976 596.877 978.880 600.030 C 980.464 601.764, 982.365 604.379, 983.104 605.841 C 984.800 609.196, 996.493 626.994, 998.318 629 C 1000.147 631.009, 1006.952 641.336, 1010.418 647.362 C 1011.957 650.036, 1014.692 653.790, 1016.498 655.704 C 1018.303 657.617, 1020.788 661.144, 1022.021 663.540 C 1026.832 672.895, 1034.541 675.560, 1039.641 669.631 L 1042.071 666.807 1041.785 617.108 C 1041.467 561.594, 1041.635 562.904, 1034.661 561.596 C 1024.558 559.701, 1024.004 561.758, 1023.978 601.297 L 1023.956 634.500 1021.987 632 C 1020.905 630.625, 1019.455 628.263, 1018.765 626.750 C 1018.076 625.237, 1017.253 624, 1016.936 624 C 1016.357 624, 1008.144 611.987, 1002.068 602.250 C 1000.266 599.362, 998.483 597, 998.107 597 C 997.731 597, 995.890 594.413, 994.017 591.250 C 992.144 588.087, 988.224 582.056, 985.306 577.848 C 982.388 573.639, 980 569.946, 980 569.641 C 980 563.210, 967.372 558.571, 962.567 563.237 M 827.500 562.354 C 822.196 563.727, 814.177 567.520, 812.503 569.448 C 811.952 570.084, 809.604 571.868, 807.286 573.413 C 802.221 576.790, 796.280 584.490, 792.948 592 C 791.605 595.025, 789.992 598.045, 789.363 598.712 C 784.939 603.399, 785.385 637.038, 789.909 639.968 C 790.361 640.261, 791.064 641.625, 791.472 643 C 799.262 669.251, 849.601 683.071, 863.807 662.859 C 864.525 661.837, 865.718 661, 866.456 661 C 868.861 661, 878.086 649.824, 881.248 643.080 C 882.945 639.461, 884.714 636.245, 885.181 635.932 C 889.747 632.874, 889.674 595.998, 885.096 593.035 C 884.641 592.741, 883.066 589.944, 881.595 586.820 C 879.075 581.466, 869.111 570, 866.979 570 C 866.440 570, 865.152 569.152, 864.115 568.115 C 858.538 562.538, 838.791 559.431, 827.500 562.354 M 1429.476 562.420 C 1424.136 564.704, 1424.111 564.959, 1423.944 617.809 C 1423.778 670.508, 1423.731 670.013, 1429.128 671.895 C 1433.247 673.331, 1484.085 673.382, 1489.221 671.956 C 1496.068 670.054, 1498.383 662.292, 1493.545 657.455 L 1491.091 655 1466.545 655 L 1442 655 1442 611.056 L 1442 567.112 1439.750 564.655 C 1436.900 561.544, 1433.338 560.769, 1429.476 562.420 M 1700.500 562.159 C 1694.732 565.565, 1695 562.884, 1695 617.113 L 1695 666.919 1697.750 669.492 C 1701.857 673.335, 1707.617 672.718, 1710.717 668.102 L 1713 664.704 1712.994 618.102 C 1712.989 572.187, 1712.584 565.560, 1709.638 563.114 C 1707.541 561.374, 1702.689 560.867, 1700.500 562.159 M 1794.260 563.202 C 1789.867 566.317, 1790.162 563.850, 1789.032 607 C 1787.272 674.245, 1786.999 671.689, 1796.039 672.694 C 1805.715 673.770, 1806.284 670.436, 1806.913 609 C 1806.979 602.529, 1807.391 598.069, 1807.855 598.800 C 1808.309 599.516, 1809.652 601.316, 1810.840 602.800 C 1813.827 606.534, 1826 625.179, 1826 626.022 C 1826 626.399, 1827.121 627.918, 1828.491 629.396 C 1831.241 632.363, 1839 643.526, 1839 644.515 C 1839 645.618, 1845.222 654.410, 1847.962 657.179 C 1849.420 658.653, 1851.659 661.893, 1852.937 664.378 C 1857.833 673.896, 1865.502 676.605, 1870.641 670.631 L 1873.071 667.807 1872.785 618.108 C 1872.467 562.594, 1872.635 563.904, 1865.661 562.596 C 1855.558 560.701, 1855.004 562.758, 1854.978 602.297 C 1854.954 638.473, 1855.028 638.102, 1849.795 628 C 1849.083 626.625, 1848.011 625.050, 1847.414 624.500 C 1845.911 623.116, 1835.787 608.127, 1834.027 604.680 C 1833.235 603.129, 1831.634 600.879, 1830.468 599.680 C 1828.071 597.213, 1822 588.477, 1822 587.494 C 1822 586.436, 1811.693 572, 1810.938 572 C 1810.555 572, 1809.702 570.694, 1809.041 569.099 C 1806.115 562.035, 1799.580 559.428, 1794.260 563.202 M 1148.500 562.618 C 1142.177 564.230, 1136.550 566.450, 1135.093 567.907 C 1134.177 568.823, 1131.787 570.587, 1129.782 571.826 C 1113.179 582.087, 1115.449 610.402, 1133.500 618.193 C 1139.149 620.632, 1142.205 621.420, 1156.250 624.061 C 1159.412 624.655, 1162 625.524, 1162 625.991 C 1162 626.459, 1163.463 627.157, 1165.250 627.543 C 1183.086 631.392, 1184.144 652.887, 1166.705 657.071 C 1155.682 659.715, 1134.006 652.153, 1133.999 645.661 C 1133.998 645.022, 1132.986 643.271, 1131.749 641.769 C 1130.512 640.266, 1128.732 637.958, 1127.793 636.638 C 1124.319 631.753, 1116.268 632.525, 1114.017 637.959 C 1108.862 650.403, 1130.090 671.641, 1151.174 675.135 C 1201.506 683.474, 1216.105 619.812, 1166.360 608.908 C 1163.137 608.202, 1160.275 607.324, 1160 606.958 C 1159.725 606.592, 1156.350 605.719, 1152.500 605.018 C 1129.576 600.846, 1131.283 582.285, 1154.771 580.316 C 1167.632 579.238, 1173.760 582.542, 1175.123 591.290 C 1177.279 605.129, 1193.017 603.723, 1192.990 589.694 C 1192.981 584.593, 1189.118 574, 1187.267 574 C 1186.813 574, 1184.816 572.421, 1182.830 570.492 C 1176.057 563.913, 1158.877 559.973, 1148.500 562.618 M 1985.500 562.616 C 1976.752 564.847, 1972.677 566.322, 1971.200 567.789 C 1970.254 568.730, 1967.112 571.233, 1964.218 573.351 C 1945.235 587.246, 1939.313 622.569, 1951.705 647.989 C 1963.589 672.366, 1998.467 681.139, 2015.869 664.128 C 2017.629 662.408, 2019.449 661, 2019.913 661 C 2021.901 661, 2029.381 649.494, 2032.690 641.343 C 2034.665 636.479, 2036.705 632.226, 2037.223 631.890 C 2040.005 630.088, 2039.251 619.564, 2036.089 616.061 L 2032.984 612.622 2014.879 612.884 C 1995.408 613.165, 1992.765 613.738, 1990.974 618.064 C 1987.344 626.826, 1992.974 630.985, 2008.500 631.012 C 2014.550 631.022, 2018.997 631.361, 2018.381 631.765 C 2017.766 632.169, 2016.066 634.750, 2014.604 637.500 C 2008.849 648.328, 2006.316 650.919, 1998.939 653.521 C 1985.856 658.138, 1974.725 652.801, 1967.422 638.410 L 1963.500 630.680 1963.500 618.537 C 1963.500 580.654, 1996.651 566.137, 2014.784 596.078 C 2018.514 602.237, 2025.268 603.823, 2029.545 599.545 C 2035.873 593.218, 2030.993 583.336, 2014.648 569.378 C 2008.919 564.485, 1992.816 560.749, 1985.500 562.616 M 673.196 563.924 C 667.589 565.359, 661 568.121, 661 569.036 C 661 569.514, 659.417 570.657, 657.483 571.575 C 652.697 573.846, 645.856 581.686, 642.536 588.703 C 641.028 591.892, 639.462 594.725, 639.057 595 C 633.224 598.954, 632.969 639.632, 638.750 643.941 C 639.163 644.248, 640.577 646.641, 641.893 649.258 C 658.870 683.011, 705.307 681.393, 721.053 646.500 C 730.595 625.353, 715.490 618.537, 704.404 638.987 C 699.239 648.515, 697.956 649.806, 689.500 653.981 C 679.908 658.717, 660 652.219, 660 644.352 C 660 643.574, 659.367 642.694, 658.592 642.397 C 650.920 639.453, 650.278 602.590, 657.802 597.035 C 658.201 596.741, 660.260 594.192, 662.377 591.370 C 674.060 575.805, 692.423 577.958, 704.141 596.266 C 708.880 603.671, 714.781 605.310, 719.545 600.545 C 725.956 594.135, 720.393 583.765, 702.930 569.569 C 697.045 564.785, 681.420 561.818, 673.196 563.924 M 1273.303 564.197 C 1269.339 566.112, 1269 569.615, 1269 608.678 L 1269 646.057 1271.965 651.779 C 1284.112 675.222, 1318.919 679.710, 1338.619 660.374 C 1348.092 651.076, 1348 651.605, 1348 606.276 L 1348 567.909 1345.545 565.455 C 1342.523 562.432, 1337.228 562.186, 1333.861 564.910 L 1331.500 566.821 1330.868 602.660 C 1329.989 652.506, 1329.089 654.443, 1306.895 654.247 C 1287.984 654.081, 1286 649.344, 1286 604.366 C 1286 567.083, 1285.820 565.862, 1280.086 564.144 C 1275.688 562.826, 1276.147 562.823, 1273.303 564.197 M 1540.487 565.422 C 1531.478 574.431, 1539.105 581, 1558.577 581 L 1573 581 1573 623.453 C 1573 652.436, 1573.352 666.679, 1574.110 668.343 C 1576.492 673.569, 1583.691 674.463, 1588.077 670.077 L 1591 667.154 1591 624.077 L 1591 581 1605.099 581 C 1623.961 581, 1628.958 578.460, 1627.287 569.720 C 1626.084 563.428, 1626.767 563.528, 1582.883 563.217 L 1542.975 562.934 1540.487 565.422 M 829.247 580.471 C 823.307 582.432, 818.100 586.449, 814 592.236 C 812.075 594.953, 809.921 597.796, 809.214 598.553 C 802.657 605.571, 802.400 632.357, 808.828 638.732 C 809.808 639.705, 812.101 642.432, 813.923 644.793 C 825.149 659.340, 849.078 657.485, 860.977 641.144 C 863.438 637.765, 865.758 635, 866.132 635 C 871.698 635, 872.055 601.198, 866.547 595.690 C 865.759 594.902, 863.985 592.594, 862.606 590.561 C 856.046 580.895, 841.393 576.463, 829.247 580.471 M 184.353 613.524 C 183.200 616.527, 155.634 637.958, 143.205 645.513 C 135.602 650.135, 135.237 649.604, 152 658.334 C 182.828 674.390, 222.014 685.908, 258.187 689.547 C 266.148 690.348, 270.819 688.142, 284.435 677.149 C 297.248 666.804, 297.937 665.566, 291.750 664.004 C 266.997 657.757, 217.786 633.576, 189.790 613.904 C 186.515 611.602, 185.127 611.505, 184.353 613.524" stroke="none" fill="#cc2b37" fill-rule="evenodd"/><path d="M 408.460 110.064 C 393.185 114.506, 390.768 123.873, 391.193 177 L 391.500 215.500 394.151 220.500 C 401.426 234.221, 402.617 234.500, 454 234.500 C 500.993 234.500, 501.262 234.469, 508.203 228.198 C 516.776 220.452, 516.500 222.324, 516.500 171.973 L 516.500 127.447 513.945 122.483 C 511.070 116.895, 504.793 111.592, 499.225 110.046 C 494.630 108.769, 412.855 108.786, 408.460 110.064 M 186.500 138.581 C 179.900 141.058, 173.375 143.461, 172 143.922 C 168.300 145.162, 151.371 153.458, 144.640 157.330 C 136.983 161.735, 137.474 161.862, 162.949 162.059 L 184.007 162.223 188.671 155.410 C 197.324 142.773, 201.710 133.912, 199.250 134.039 C 198.838 134.060, 193.100 136.104, 186.500 138.581 M 180 175.165 C 180 177.164, 167.513 195.020, 156.522 208.739 C 143.870 224.530, 143.961 222.223, 155.643 231.005 C 177.572 247.488, 211.576 277.610, 233.975 300.396 C 238.086 304.578, 241.846 308, 242.329 308 C 247.955 308, 315 226.707, 315 219.885 C 315 217.165, 270.001 196.119, 248.091 188.592 C 220.064 178.964, 180 171.063, 180 175.165 M 242.746 325.203 C 241.386 326.467, 236.760 331.775, 232.467 337 C 223.164 348.321, 177.109 394.375, 172.928 396.537 C 171.318 397.370, 170 398.403, 170 398.833 C 170 399.661, 170.216 399.939, 182.987 415.500 C 209.729 448.084, 271.207 511.187, 274.366 509.295 C 275.610 508.551, 317.973 467.785, 340.812 445.354 C 351.439 434.917, 354.991 430.836, 354.358 429.788 C 353.283 428.009, 247.203 323.609, 246.058 323.203 C 245.597 323.040, 244.107 323.940, 242.746 325.203 M 268.477 538.096 C 256.846 549.901, 218.221 585.845, 205.094 597.078 L 199.744 601.656 208.622 608.522 C 230.451 625.406, 253.872 639.090, 280.500 650.517 C 298 658.026, 304.333 660.098, 305.500 658.694 C 306.050 658.033, 308.975 655.469, 312 652.997 C 334.826 634.340, 369 604.359, 369 602.990 C 369 602.239, 352.783 589.788, 332.205 574.739 C 325.201 569.618, 294.380 544.332, 285.387 536.329 C 276.646 528.552, 278.022 528.408, 268.477 538.096 M 306.393 676.975 C 302.052 680.935, 297.262 684.908, 295.750 685.803 C 282.989 693.358, 325.837 689.800, 359.488 680.510 C 370.840 677.376, 376.562 675.100, 373.450 674.956 C 372.927 674.932, 365.525 674.742, 357 674.535 C 348.182 674.320, 337.835 673.436, 333 672.485 C 328.325 671.565, 322.202 670.579, 319.393 670.294 L 314.285 669.776 306.393 676.975" stroke="none" fill="#653055" fill-rule="evenodd"/><path d="M 1229.500 0.660 C 1219.950 1.434, 1205.696 3.235, 1195.500 4.955 C 1189.450 5.977, 1182.300 7.116, 1179.612 7.488 C 1173.289 8.362, 1155.983 13.695, 1144.376 18.345 C 1139.358 20.355, 1134.711 22, 1134.050 22 C 1132.924 22, 1117.959 29.828, 1104.607 37.401 C 1101.366 39.239, 1096.591 42.572, 1093.996 44.808 C 1091.401 47.043, 1087.735 49.919, 1085.850 51.198 C 1081.929 53.859, 1064.037 72.045, 1064.015 73.392 C 1064.007 73.883, 1062.057 76.583, 1059.682 79.392 C 1054.605 85.397, 1049 93.472, 1049 94.781 C 1049 95.288, 1046.602 100.157, 1043.671 105.601 C 1025.803 138.790, 1023.429 169.590, 1035.016 217.896 C 1036.282 223.173, 1044.577 242.852, 1046.436 244.987 C 1047.161 245.819, 1048.651 248.525, 1049.748 251 C 1053.109 258.580, 1080.088 289.893, 1083.332 289.978 C 1083.790 289.990, 1087.615 292.662, 1091.832 295.917 C 1103.547 304.956, 1126.937 315.682, 1153 323.966 C 1160.425 326.327, 1167.625 328.633, 1169 329.091 C 1175.337 331.205, 1188.671 333.999, 1192.387 333.993 C 1194.649 333.989, 1201 335.090, 1206.500 336.440 C 1212 337.790, 1220.303 339.625, 1224.952 340.519 C 1241.869 343.769, 1262.669 350.869, 1278.083 358.655 C 1283.903 361.595, 1289.002 364, 1289.413 364 C 1299.268 364, 1310.654 383.470, 1309.770 398.811 C 1306.942 447.869, 1245.253 461.826, 1146.500 435.750 C 1142.100 434.589, 1132.957 431.470, 1126.182 428.819 C 1119.407 426.169, 1113.212 424, 1112.415 424 C 1109.003 424, 1067.193 402.121, 1062.820 398.047 C 1061.663 396.969, 1058.830 395.200, 1056.525 394.117 C 1052.786 392.359, 1043.028 383.413, 1042.167 380.952 C 1041.303 378.484, 1026.374 379.884, 1025.161 382.547 C 1023.796 385.542, 1023.495 504.655, 1024.846 506.785 C 1025.829 508.335, 1031.440 511.414, 1037.964 513.986 C 1040.597 515.024, 1044.719 516.783, 1047.125 517.896 C 1054.403 521.261, 1066.605 525.719, 1072.212 527.061 C 1075.120 527.757, 1082.364 529.608, 1088.309 531.175 C 1112.787 537.625, 1126.014 540.138, 1153.275 543.516 C 1232.364 553.318, 1272.738 550.005, 1329.373 529.067 C 1342.311 524.284, 1365.306 511.750, 1374.681 504.371 C 1378.431 501.419, 1382.516 498.562, 1383.757 498.024 C 1384.999 497.485, 1388.374 494.733, 1391.257 491.909 C 1394.141 489.084, 1398.441 485.172, 1400.814 483.214 C 1403.186 481.257, 1405.749 478.495, 1406.509 477.077 C 1407.269 475.660, 1410.053 472.183, 1412.696 469.351 C 1415.338 466.519, 1418.795 461.794, 1420.378 458.851 C 1421.960 455.908, 1423.589 453.275, 1423.997 453 C 1425.384 452.065, 1435 432.264, 1435 430.343 C 1435 429.291, 1435.896 425.881, 1436.992 422.764 C 1445.753 397.836, 1444.579 357.488, 1433.900 316.500 C 1428.503 295.786, 1408.482 271.738, 1383.500 255.964 C 1379.650 253.533, 1376.275 251.270, 1376 250.935 C 1374.873 249.564, 1366.210 245, 1364.734 245 C 1363.859 245, 1362.548 244.433, 1361.821 243.739 C 1356.656 238.811, 1327.593 227.412, 1307.793 222.549 C 1301.956 221.115, 1293.911 218.830, 1289.915 217.471 C 1285.919 216.112, 1281.386 215, 1279.842 215 C 1278.297 215, 1272.188 213.695, 1266.267 212.099 C 1260.345 210.504, 1251.900 208.472, 1247.500 207.584 C 1243.100 206.697, 1234.775 204.872, 1229 203.530 C 1223.225 202.189, 1215.125 200.357, 1211 199.461 C 1198.010 196.639, 1168 180.808, 1168 176.777 C 1168 176.179, 1166.844 174.173, 1165.431 172.321 C 1159.292 164.272, 1158.152 149.911, 1162.944 141 C 1164.276 138.525, 1166.202 134.868, 1167.226 132.873 C 1170.354 126.778, 1188.245 112.790, 1195.311 110.916 C 1197.065 110.450, 1202.525 108.707, 1207.445 107.041 C 1232.576 98.531, 1269.432 99.073, 1306.704 108.501 C 1312.092 109.863, 1318.386 111.424, 1320.691 111.969 C 1324.382 112.843, 1330.317 115.122, 1352 123.995 C 1359.833 127.201, 1370.670 132.743, 1376.500 136.525 C 1379.250 138.309, 1383.075 140.439, 1385 141.258 C 1386.925 142.076, 1389.453 143.591, 1390.618 144.623 C 1391.783 145.655, 1395.908 148.750, 1399.785 151.500 C 1403.662 154.250, 1407.054 157.287, 1407.323 158.250 C 1407.879 160.237, 1423.992 160.961, 1424.008 159 C 1424.484 99.983, 1423.860 38.400, 1422.780 37.859 C 1414.277 33.599, 1385.453 22, 1383.368 22 C 1382.500 22, 1376.549 20.217, 1370.144 18.038 C 1355.684 13.117, 1336.217 8.175, 1326.704 7.010 C 1322.742 6.525, 1313.425 5.213, 1306 4.094 C 1282.393 0.537, 1249.337 -0.947, 1229.500 0.660 M 739.309 12.250 C 738.396 13.661, 737.607 104.261, 738.477 107.750 L 739.038 110 774.019 110 L 809 110 809 243.438 C 809 358.859, 808.796 377.796, 807.488 383.688 C 802.866 404.507, 795.091 419.331, 786.500 423.706 C 784.850 424.546, 782.600 426.028, 781.500 426.998 C 778.071 430.023, 763.600 436.943, 758.432 438.029 C 726.082 444.829, 706.244 444.577, 674 436.954 C 671.525 436.369, 665.065 434.115, 659.645 431.945 C 631.492 420.675, 632.031 419.666, 632.014 483.668 C 631.997 544.377, 630.324 537.300, 645.318 539.947 C 652.018 541.130, 660.200 542.573, 663.500 543.154 C 666.800 543.735, 671.252 544.385, 673.393 544.599 C 675.535 544.813, 681.160 545.636, 685.893 546.429 C 739.579 555.415, 801.316 549.385, 839.772 531.401 C 843.771 529.530, 847.631 528, 848.350 528 C 849.715 528, 867.273 517.755, 870.171 515.268 C 871.089 514.479, 873.225 513.084, 874.917 512.167 C 897.624 499.859, 925.516 459.246, 930.659 431 C 931.510 426.325, 932.826 419.125, 933.584 415 C 934.713 408.851, 934.964 380.712, 934.980 258.750 L 935 110 958.393 110 C 978.802 110, 981.863 109.798, 982.393 108.418 C 983.186 106.352, 983.186 14.648, 982.393 12.582 C 981.575 10.451, 740.686 10.123, 739.309 12.250 M 1528.462 12.250 C 1528.201 12.938, 1528.103 133.425, 1528.244 280 L 1528.500 546.500 1588.750 546.758 L 1649 547.016 1649 373.308 C 1649 277.769, 1649.380 200.028, 1649.844 200.550 C 1650.308 201.073, 1651.750 204.200, 1653.048 207.500 C 1654.346 210.800, 1655.988 214.625, 1656.698 216 C 1657.407 217.375, 1657.990 219.233, 1657.994 220.128 C 1658 221.726, 1666.555 242.537, 1668.013 244.500 C 1668.422 245.050, 1669.914 248.887, 1671.329 253.026 C 1672.744 257.165, 1675.313 263.915, 1677.039 268.026 C 1678.764 272.137, 1681.329 278.425, 1682.738 282 C 1684.147 285.575, 1685.693 289.009, 1686.174 289.631 C 1686.654 290.253, 1687.722 293.350, 1688.546 296.514 C 1689.370 299.677, 1690.702 303.443, 1691.507 304.883 C 1693.768 308.927, 1702.080 328.966, 1703.585 334 C 1704.325 336.475, 1707.696 344.800, 1711.077 352.500 C 1714.458 360.200, 1717.581 368.075, 1718.017 370 C 1718.758 373.274, 1723.135 383.975, 1728.446 395.500 C 1729.713 398.250, 1731.311 402.300, 1731.995 404.500 C 1732.680 406.700, 1733.854 409.962, 1734.604 411.750 L 1735.968 415 1779.463 415 L 1822.959 415 1824.852 411.250 C 1828.657 403.713, 1837 383.140, 1837 381.296 C 1837 380.253, 1837.378 378.973, 1837.840 378.450 C 1838.302 377.928, 1839.281 375.925, 1840.017 374 C 1840.752 372.075, 1842.356 368.250, 1843.580 365.500 C 1847.133 357.515, 1851 347.735, 1851 346.732 C 1851 345.732, 1859.689 324.750, 1863.597 316.312 C 1864.919 313.458, 1866 310.468, 1866 309.665 C 1866 308.863, 1869.375 300.254, 1873.500 290.533 C 1877.625 280.812, 1881 272.303, 1881 271.623 C 1881 270.943, 1884.163 263.015, 1888.028 254.005 C 1891.894 244.995, 1895.317 236.470, 1895.635 235.062 C 1895.953 233.653, 1897.003 230.700, 1897.969 228.500 C 1898.935 226.300, 1902.149 218.680, 1905.112 211.566 L 1910.500 198.633 1910.753 372.816 L 1911.006 547 1974.503 547 L 2038 547 2038 279 L 2038 11 1965.121 11 L 1892.243 11 1890.959 14.250 C 1890.253 16.038, 1888.335 20.425, 1886.696 24 C 1885.058 27.575, 1882.487 33.875, 1880.983 38 C 1879.479 42.125, 1877.016 48.200, 1875.510 51.500 C 1874.003 54.800, 1871.248 60.826, 1869.386 64.891 C 1867.523 68.956, 1866 72.883, 1866 73.619 C 1866 74.354, 1864.501 78.229, 1862.669 82.228 C 1858.185 92.016, 1851.819 106.852, 1848.177 116 C 1842.572 130.080, 1830.533 158.416, 1825.331 169.772 C 1823.499 173.771, 1822 177.708, 1822 178.519 C 1822 179.906, 1820.484 183.424, 1812.531 200.500 C 1810.737 204.350, 1808.246 210.425, 1806.994 214 C 1805.742 217.575, 1803.271 223.650, 1801.504 227.500 C 1796.444 238.518, 1792.375 248.171, 1791.072 252.245 C 1790.413 254.304, 1788.157 259.704, 1786.059 264.245 L 1782.243 272.500 1780.766 268.974 C 1779.954 267.035, 1778.268 262.535, 1777.019 258.974 C 1775.770 255.414, 1773.230 249.228, 1771.374 245.228 C 1769.518 241.229, 1768 237.742, 1768 237.481 C 1768 237.219, 1766.650 234.148, 1765 230.656 C 1763.350 227.164, 1762 223.564, 1762 222.656 C 1762 221.748, 1760.699 218.192, 1759.108 214.753 C 1753.124 201.816, 1749.055 192.194, 1745.469 182.500 C 1743.434 177, 1741.409 172.049, 1740.968 171.498 C 1740.527 170.946, 1739.193 168.021, 1738.005 164.998 C 1736.816 161.974, 1735.277 158.150, 1734.584 156.500 C 1733.891 154.850, 1732.613 151.475, 1731.745 149 C 1730.876 146.525, 1727.823 139.325, 1724.961 133 C 1722.098 126.675, 1719.148 119.311, 1718.405 116.634 C 1717.661 113.958, 1716.665 111.258, 1716.190 110.634 C 1715.715 110.011, 1714.280 106.800, 1713 103.500 C 1711.720 100.200, 1710.348 97.050, 1709.950 96.500 C 1709.025 95.221, 1703.385 81.292, 1702.459 78 C 1702.072 76.625, 1700.235 72.228, 1698.378 68.228 C 1696.520 64.229, 1695 60.720, 1695 60.432 C 1695 60.143, 1693.425 56.543, 1691.500 52.432 C 1689.575 48.320, 1687.997 44.179, 1687.994 43.228 C 1687.990 42.278, 1687.276 40.150, 1686.406 38.500 C 1685.536 36.850, 1683.663 32.575, 1682.244 29 C 1680.825 25.425, 1679.065 21.612, 1678.332 20.527 C 1677.599 19.443, 1677 17.567, 1677 16.359 C 1677 10.615, 1682.355 11, 1602.362 11 C 1544.542 11, 1528.836 11.266, 1528.462 12.250 M 264.500 121.660 C 230.087 124.448, 204.172 130.943, 202.054 137.311 C 201.470 139.065, 198.070 145.166, 194.497 150.870 C 186.057 164.340, 185.141 162.832, 204 166.511 C 247.885 175.071, 281.480 188.318, 312.316 209.221 C 320.070 214.478, 324.894 209.593, 339.690 181.500 C 342.587 176, 344.967 171.863, 344.979 172.307 C 345.071 175.777, 331.838 202.977, 325.715 211.902 C 322.799 216.152, 322.761 216.350, 324.597 217.653 C 355.063 239.260, 362.171 245.071, 380.500 263.351 C 390.950 273.773, 396.350 279.618, 392.500 276.339 C 358.635 247.498, 323.083 221.594, 319.991 223.506 C 319.538 223.786, 315.830 229.316, 311.751 235.795 C 298.421 256.970, 266.844 298.793, 253.589 312.830 L 249.500 317.159 304.500 371.546 C 334.750 401.459, 359.730 425.836, 360.010 425.717 C 361.078 425.263, 381.947 402.925, 392 391.475 C 397.775 384.897, 406.517 375.012, 411.426 369.508 C 420.863 358.928, 430.607 346.240, 440.477 331.680 C 447 322.057, 448.209 321.694, 444.978 330.329 C 437.799 349.516, 409.095 388.509, 371.729 429.833 C 365.003 437.271, 354.595 448.789, 348.601 455.428 C 342.606 462.068, 327.244 478.300, 314.462 491.500 C 301.680 504.700, 290.009 516.961, 288.526 518.746 L 285.829 521.991 291.165 526.820 C 294.099 529.475, 298.525 533.404, 301 535.551 C 303.475 537.697, 310 543.538, 315.500 548.532 C 348.654 578.631, 374.376 598.639, 377.384 596.668 C 383.406 592.722, 415.020 558.934, 437.428 532.495 C 446.339 521.981, 446.295 522.023, 445.114 525.167 C 438.576 542.580, 418.560 569.893, 392.274 597.275 C 384.169 605.717, 382.881 608.072, 386.109 608.546 C 386.935 608.667, 395.089 613.727, 404.230 619.791 C 413.370 625.855, 421.667 631.274, 422.666 631.833 C 423.666 632.392, 424.120 633.214, 423.676 633.658 C 422.734 634.599, 411.536 628.751, 394.363 618.351 C 379.109 609.113, 381.125 608.733, 365.645 623.753 C 358.415 630.767, 345.630 642.558, 337.234 649.956 C 318.892 666.117, 320.472 667.449, 363.975 672.497 C 367.536 672.910, 371.402 673.873, 372.567 674.636 C 375.006 676.234, 374.696 676.322, 395.500 668.126 C 414.849 660.503, 446.432 642.376, 455.060 633.942 C 456.622 632.414, 461.186 628.557, 465.201 625.370 C 474.832 617.725, 495.987 596.539, 504.014 586.500 C 507.532 582.100, 511.449 577.504, 512.717 576.287 C 513.985 575.071, 518.574 568.644, 522.915 562.006 C 571.896 487.113, 582.603 389.361, 550.956 306 C 549.181 301.325, 547.080 295.704, 546.286 293.509 C 544.217 287.783, 536.307 271.848, 530.633 261.971 L 525.766 253.500 506.133 253.275 C 495.335 253.152, 467.479 252.756, 444.230 252.396 L 401.960 251.741 396.230 249.018 C 386.729 244.502, 379.594 237.951, 375.809 230.268 L 372.500 223.550 372 179.358 C 371.725 155.053, 371.240 134.907, 370.922 134.589 C 363.985 127.651, 294.598 119.222, 264.500 121.660" stroke="none" fill="#000064" fill-rule="evenodd"/></svg>